<svg width="326" height="62" viewBox="0 0 326 62" fill="none" xmlns="http://www.w3.org/2000/svg">
<path fill-rule="evenodd" clip-rule="evenodd" d="M5.47163 0.301422C3.10701 0.793755 1.29642 2.38169 0.484135 4.6754L0.203583 5.46752V27.6278C0.203583 46.0447 0.226876 49.8824 0.342338 50.3449C1.43788 54.7418 6.62691 57.1419 10.4706 55.0293C11.427 54.5038 12.1863 53.8762 13.3423 52.6568C15.4804 50.4014 15.6667 50.2058 16.9577 48.8758C17.6609 48.1516 18.9158 46.8542 19.7463 45.9922C22.6579 42.9717 23.0799 42.5512 23.14 42.6109C23.1731 42.644 23.2264 44.4544 23.2585 46.6345C23.3122 50.2852 23.3328 50.638 23.5198 51.1042C24.5721 53.7273 26.2396 55.1502 28.904 55.6985C29.8017 55.8838 49.9904 55.8502 50.8842 55.6626C53.5118 55.1105 55.5381 53.3171 56.2076 50.952C56.5403 49.7774 56.5809 49.5394 56.5809 48.7764C56.5809 48.0176 56.5393 47.7717 56.2151 46.6274C55.9787 45.7925 55.2461 44.5998 54.4537 43.7608C54.3701 43.6724 54.2107 43.489 54.0995 43.3534C53.7828 42.969 52.5064 41.4695 51.0094 39.724C50.2572 38.8469 49.555 38.0204 49.4489 37.8876C49.3424 37.7544 49.0915 37.4617 48.8915 37.2367C48.6911 37.0121 48.2991 36.5586 48.0206 36.2288C47.7422 35.8993 47.332 35.4192 47.1086 35.1618C46.8862 34.9046 46.6115 34.5839 46.4991 34.4497C45.5609 33.3291 44.6683 32.274 44.6237 32.2322C44.5937 32.2042 44.045 31.5668 43.4039 30.8155C42.7628 30.0642 41.6929 28.8114 41.0265 28.0315C40.36 27.2518 39.6923 26.4665 39.5427 26.2861C39.1852 25.8554 39.3506 25.7293 36.9782 28.2362C36.4326 28.8125 32.0461 33.3588 30.7325 34.709C30.0276 35.4336 29.3051 36.186 29.1268 36.3809C28.9486 36.5755 27.8111 37.7594 26.5998 39.0118C25.3881 40.2639 24.1562 41.5504 23.8622 41.8704C23.5678 42.1904 23.2872 42.4521 23.2386 42.4521C23.1886 42.4521 23.1498 39.6431 23.1498 36.0376C23.1498 30.2814 23.1333 29.6164 22.9894 29.5614C22.9013 29.5277 19.6849 29.5001 15.8423 29.5001C9.82442 29.5001 8.86659 29.4798 8.93616 29.3557C8.98073 29.2765 9.58708 28.626 10.2836 27.9108C10.98 27.1952 12.0719 26.0648 12.7096 25.3989C13.3473 24.7325 14.4871 23.5499 15.2423 22.771C15.9979 21.9917 17.641 20.284 18.8942 18.9763C20.1471 17.6682 21.7926 15.9609 22.5506 15.1817C23.3085 14.4023 24.2386 13.4362 24.617 13.0342C24.9955 12.6323 25.3446 12.3275 25.3925 12.3572C25.4405 12.3868 25.4796 15.4136 25.4796 19.0835V25.756H32.3533H39.227L40.1234 24.8199C40.6163 24.3053 42.0707 22.7925 43.3553 21.4588C44.6396 20.1252 46.2149 18.4867 46.8554 17.8173C47.4964 17.1483 48.6173 15.9855 49.3466 15.2335C50.0754 14.4816 51.1925 13.3226 51.8284 12.6579C52.4643 11.9936 53.4922 10.9236 54.1122 10.2803C56.2646 8.04655 56.5188 7.54881 56.5188 5.56869C56.5188 3.09052 55.354 1.40242 52.9848 0.446763C52.3727 0.199923 51.2173 0.155072 45.488 0.155072C36.5586 0.155072 37.3918 -0.160223 32.3577 5.12494C28.8996 8.7557 25.5438 12.1966 25.4607 12.1966C25.4155 12.1966 25.3784 10.8191 25.3784 9.13538C25.3784 5.87487 25.3152 5.26419 24.8679 4.20264C23.9874 2.11293 22.1528 0.66831 19.8638 0.261632C18.9594 0.101118 6.265 0.136187 5.47163 0.301422Z" fill="#E04462"/>
<path fill-rule="evenodd" clip-rule="evenodd" d="M9.45503 0.129888C11.3119 0.1454 14.3206 0.1454 16.1414 0.129888C17.9621 0.114377 16.4432 0.101562 12.7656 0.101562C9.08808 0.101562 7.59851 0.114377 9.45503 0.129888ZM42.3296 0.129888C44.1028 0.1454 46.975 0.1454 48.7116 0.129888C50.4492 0.114377 48.9985 0.101562 45.4879 0.101562C41.9778 0.101562 40.5565 0.114377 42.3296 0.129888ZM2.02327 2.00176L1.52057 2.53321L2.0523 2.0311C2.34501 1.75492 2.58437 1.51583 2.58437 1.49965C2.58437 1.42411 2.49052 1.50808 2.02327 2.00176ZM34.4418 2.81141L33.9391 3.34252L34.4708 2.84041C34.965 2.37371 35.0491 2.27996 34.9735 2.27996C34.9576 2.27996 34.7183 2.51904 34.4418 2.81141ZM32.1106 5.24002L31.7102 5.66996L32.1406 5.27002C32.541 4.89809 32.618 4.80975 32.5413 4.80975C32.5248 4.80975 32.331 5.00328 32.1106 5.24002ZM56.7113 5.56878C56.7122 5.84701 56.7318 5.94884 56.7552 5.79507C56.7785 5.6413 56.7781 5.41366 56.7538 5.28925C56.7299 5.16446 56.7108 5.2906 56.7113 5.56878ZM25.3999 9.08493C25.3881 10.7407 25.4127 12.0956 25.4543 12.0956C25.4961 12.0956 25.5187 11.2191 25.5046 10.1478C25.455 6.43174 25.4215 6.09014 25.3999 9.08493ZM29.4306 7.99741C29.1845 8.24763 29.0063 8.45264 29.034 8.45264C29.0619 8.45264 29.2861 8.24763 29.5319 7.99741C29.778 7.74686 29.9566 7.54185 29.929 7.54185C29.9009 7.54185 29.6768 7.74686 29.4306 7.99741ZM53.7902 10.7042L53.3898 11.1342L53.8206 10.7342C54.221 10.3623 54.2976 10.2739 54.221 10.2739C54.2047 10.2739 54.0108 10.4675 53.7902 10.7042ZM26.7413 10.8054L26.3409 11.2353L26.7713 10.8354C27.0083 10.6155 27.2021 10.422 27.2021 10.4055C27.2021 10.3289 27.1136 10.4055 26.7413 10.8054ZM51.4112 13.1834L50.8571 13.7651L51.4402 13.2121C51.9812 12.6981 52.069 12.6014 51.9938 12.6014C51.9779 12.6014 51.7158 12.8634 51.4112 13.1834ZM48.8789 15.814L48.2234 16.4972L48.9074 15.8424C49.2835 15.4822 49.5909 15.175 49.5909 15.1595C49.5909 15.085 49.4881 15.1797 48.8789 15.814ZM22.0823 15.7634L21.5796 16.2949L22.1113 15.7927C22.6055 15.3261 22.6896 15.2323 22.614 15.2323C22.5981 15.2323 22.3588 15.4714 22.0823 15.7634ZM19.3459 18.597L18.9455 19.027L19.376 18.627C19.7764 18.2551 19.853 18.1668 19.7764 18.1668C19.7598 18.1668 19.5661 18.3603 19.3459 18.597ZM46.1926 18.597L45.7922 19.027L46.2226 18.627C46.4592 18.4068 46.653 18.2133 46.653 18.1968C46.653 18.1202 46.5649 18.1971 46.1926 18.597ZM44.0659 20.823L43.5633 21.3544L44.095 20.8523C44.5892 20.3856 44.6733 20.2919 44.5977 20.2919C44.5818 20.2919 44.3424 20.531 44.0659 20.823ZM17.0677 20.9747L16.5141 21.5567L17.0964 21.0037C17.4169 20.6992 17.6792 20.4375 17.6792 20.4217C17.6792 20.3465 17.5823 20.4342 17.0677 20.9747ZM41.1791 23.808L40.6254 24.39L41.2078 23.837C41.5281 23.5328 41.7905 23.2708 41.7905 23.255C41.7905 23.1801 41.6936 23.2674 41.1791 23.808ZM11.9044 26.3125C11.6586 26.563 11.48 26.768 11.5077 26.768C11.5357 26.768 11.7599 26.563 12.0057 26.3125C12.2518 26.0623 12.4304 25.8573 12.4027 25.8573C12.3747 25.8573 12.1505 26.0623 11.9044 26.3125ZM38.5926 26.3884L38.2952 26.7175L38.6244 26.4201C38.8057 26.2565 38.9536 26.1088 38.9536 26.0912C38.9536 26.013 38.8702 26.0818 38.5926 26.3884ZM36.2652 28.8169L35.7625 29.3484L36.2942 28.846C36.7884 28.3796 36.8725 28.2858 36.7972 28.2858C36.7811 28.2858 36.5417 28.525 36.2652 28.8169ZM9.41755 28.9181L9.01715 29.3484L9.44792 28.9481C9.84837 28.5762 9.925 28.4882 9.84837 28.4882C9.83179 28.4882 9.63803 28.6818 9.41755 28.9181ZM12.5884 29.4745C14.4969 29.49 17.6194 29.49 19.5279 29.4745C21.4364 29.4594 19.875 29.4465 16.058 29.4465C12.2413 29.4465 10.6799 29.4594 12.5884 29.4745ZM23.1974 35.8748C23.1974 39.3532 23.2102 40.7762 23.2257 39.0372C23.2413 37.2979 23.2413 34.4521 23.2257 32.7128C23.2102 30.9734 23.1974 32.3965 23.1974 35.8748ZM30.9506 34.3064C30.7044 34.557 30.5258 34.762 30.5535 34.762C30.5816 34.762 30.8057 34.557 31.0518 34.3064C31.2976 34.0563 31.4762 33.8512 31.4485 33.8512C31.4205 33.8512 31.1963 34.0563 30.9506 34.3064ZM28.2608 37.1144L27.8604 37.5447L28.2912 37.1444C28.6916 36.7725 28.7683 36.6845 28.6916 36.6845C28.6751 36.6845 28.4813 36.8781 28.2608 37.1144ZM26.1346 39.3407L25.6319 39.8718L26.1636 39.3697C26.6579 38.9033 26.7419 38.8096 26.6663 38.8096C26.6504 38.8096 26.4111 39.0483 26.1346 39.3407ZM23.5842 41.9487C23.3496 42.1699 23.192 42.351 23.2345 42.351C23.2767 42.351 23.4894 42.1689 23.7068 41.9464C24.2159 41.4257 24.1376 41.427 23.5842 41.9487ZM20.8655 44.9061L20.4651 45.336L20.8956 44.9361C21.296 44.5641 21.3726 44.4761 21.296 44.4761C21.2794 44.4761 21.0856 44.6697 20.8655 44.9061ZM18.6366 47.2337L18.2362 47.6635L18.6667 47.2636C19.0671 46.8916 19.144 46.8034 19.0674 46.8034C19.0509 46.8034 18.8571 46.9966 18.6366 47.2337ZM13.4709 52.5966L12.9682 53.1277L13.5002 52.6256C13.9942 52.1589 14.0786 52.0651 14.003 52.0651C13.9868 52.0651 13.7474 52.3041 13.4709 52.5966ZM6.91792 55.8834C7.15592 55.9049 7.5209 55.9049 7.72816 55.8829C7.93579 55.861 7.74068 55.8437 7.29501 55.8437C6.84938 55.8442 6.67955 55.8619 6.91792 55.8834ZM34.5798 55.8852C37.4954 55.8997 42.2368 55.8997 45.1159 55.8852C47.9949 55.8703 45.6095 55.8582 39.8148 55.8582C34.0201 55.8582 31.6642 55.8703 34.5798 55.8852Z" fill="#9B9A9A"/>
<path fill-rule="evenodd" clip-rule="evenodd" d="M5.26873 0.259005C5.13371 0.318692 5.21776 0.328473 5.52229 0.288345C5.77281 0.255298 5.99698 0.211796 6.02024 0.191564C6.10836 0.115353 5.46253 0.173353 5.26873 0.259005ZM19.5111 0.191564C19.5344 0.211796 19.7586 0.255298 20.009 0.288345C20.3136 0.328473 20.3977 0.318692 20.2626 0.259005C20.0688 0.173353 19.423 0.115353 19.5111 0.191564ZM38.3459 0.261367C38.1751 0.319368 38.2574 0.328135 38.5991 0.288682C38.8776 0.256646 39.1248 0.213482 39.148 0.192574C39.2277 0.12176 38.5991 0.175378 38.3459 0.261367ZM51.8284 0.191564C51.8518 0.211796 52.0756 0.255298 52.3265 0.288345C52.6306 0.328473 52.7147 0.318692 52.5797 0.259005C52.3858 0.173353 51.7401 0.115353 51.8284 0.191564ZM4.45848 0.512931C4.20527 0.634661 4.19683 0.648824 4.40783 0.597234C4.69481 0.527089 5.01756 0.362868 4.86361 0.365228C4.80792 0.365903 4.62559 0.432335 4.45848 0.512931ZM20.7183 0.441437C20.8017 0.493032 20.9844 0.565869 21.1235 0.602965C21.2997 0.650173 21.3304 0.642081 21.2248 0.576999C21.1414 0.525405 20.9591 0.452567 20.8196 0.415474C20.6437 0.368601 20.6127 0.376356 20.7183 0.441437ZM3.21743 1.07742C2.87206 1.2983 2.76031 1.44667 3.06551 1.27908C3.29778 1.15161 3.66206 0.870374 3.59724 0.868353C3.56956 0.867677 3.39839 0.961757 3.21743 1.07742ZM36.0991 1.29425C35.7828 1.52895 35.5383 1.73566 35.5559 1.7532C35.5903 1.78759 36.725 0.959059 36.725 0.899373C36.725 0.834291 36.6801 0.862618 36.0991 1.29425ZM22.4405 1.20219C22.4405 1.22917 22.6343 1.40216 22.8713 1.58661C23.108 1.77107 23.2373 1.84121 23.1586 1.74207C23.0026 1.54581 22.4405 1.12328 22.4405 1.20219ZM1.96457 2.15651C1.55302 2.58949 1.11109 3.13611 0.98213 3.37081C0.660724 3.95621 0.776187 3.91237 1.12257 3.31719C1.27686 3.05282 1.72183 2.50653 2.11177 2.10289C2.50204 1.69958 2.79677 1.36945 2.76673 1.36945C2.73702 1.36945 2.37578 1.72352 1.96457 2.15651ZM54.9303 1.61798C55.0307 1.75488 55.1807 1.89449 55.2643 1.92821C55.3475 1.96194 55.2821 1.84998 55.1185 1.67935C54.7597 1.30538 54.6831 1.28042 54.9303 1.61798ZM34.1498 3.18062L32.9425 4.45562L34.1923 3.21637C34.8797 2.53486 35.4232 1.96092 35.3999 1.94136C35.3763 1.92147 34.8138 2.47922 34.1498 3.18062ZM55.568 2.35613C55.7002 2.53688 55.825 2.68492 55.8441 2.68492C55.9212 2.68492 55.6699 2.30522 55.504 2.17067C55.3942 2.08164 55.419 2.15246 55.568 2.35613ZM23.956 2.65963C24.1441 2.89602 24.3163 3.08957 24.3385 3.08957C24.4101 3.08957 23.9759 2.52036 23.7916 2.37232C23.6937 2.29375 23.7677 2.4229 23.956 2.65963ZM56.1025 3.28954C56.2198 3.56673 56.3338 3.77547 56.3557 3.75355C56.4034 3.70566 56.0058 2.78608 55.9371 2.78608C55.9109 2.78608 55.9857 3.01269 56.1025 3.28954ZM24.6738 3.70904C24.6714 3.74377 24.7842 4.01691 24.9243 4.31602C25.0644 4.61547 25.1498 4.74665 25.114 4.60737C25.0458 4.34334 24.6815 3.59944 24.6738 3.70904ZM56.38 4.0594C56.381 4.16596 56.4282 4.32142 56.4847 4.40504C56.5599 4.51599 56.5688 4.47485 56.5193 4.2533C56.4361 3.88135 56.3782 3.80042 56.38 4.0594ZM56.616 5.56877C56.6164 6.01388 56.6342 6.18351 56.6557 5.94542C56.6772 5.70737 56.6767 5.34319 56.6552 5.13613C56.6333 4.92874 56.6155 5.12367 56.616 5.56877ZM25.1961 5.16413C25.1961 5.27538 25.2325 5.48006 25.2771 5.61936C25.3416 5.81965 25.3584 5.83011 25.3584 5.66995C25.3584 5.55865 25.3217 5.35364 25.2771 5.21471C25.2129 5.01437 25.1961 5.00359 25.1961 5.16413ZM0.1165 6.03885C0.0314221 6.85355 0.0516775 48.8101 0.13743 49.5353C0.173892 49.8414 0.203604 40.04 0.203604 27.7544C0.203604 15.4687 0.198538 5.41701 0.192461 5.41701C0.186721 5.41701 0.152286 5.69692 0.1165 6.03885ZM31.1532 6.27689C30.7379 6.69437 30.4212 7.03597 30.4489 7.03597C30.4769 7.03597 30.8392 6.69437 31.2544 6.27689C31.6694 5.85979 31.9864 5.51819 31.9583 5.51819C31.9307 5.51819 31.5681 5.85979 31.1532 6.27689ZM56.4417 6.78677C56.4071 6.87749 56.3828 7.0272 56.3875 7.1203C56.3922 7.21303 56.4361 7.15469 56.4851 6.99047C56.5809 6.67113 56.5468 6.51298 56.4417 6.78677ZM29.0002 8.49781C28.2899 9.23766 27.7086 9.86589 27.7086 9.89389C27.7086 9.92221 28.2669 9.37052 28.9496 8.66875C29.6322 7.96669 30.2592 7.33646 30.3426 7.268C30.4263 7.19954 30.4489 7.14559 30.3932 7.14825C30.3375 7.15063 29.7106 7.75795 29.0002 8.49781ZM55.4662 8.83199C55.3456 8.98505 54.742 9.63386 54.1239 10.2739C53.5057 10.9139 52.6316 11.8278 52.1816 12.3049C51.7322 12.7818 52.22 12.3036 53.2661 11.2424C55.0489 9.43357 55.8567 8.55376 55.7362 8.55376C55.7072 8.55376 55.5858 8.67887 55.4662 8.83199ZM25.9699 11.642C25.6545 11.9472 25.428 12.1967 25.4668 12.1967C25.5056 12.1967 25.7849 11.9461 26.0877 11.64C26.799 10.9207 26.715 10.922 25.9699 11.642ZM24.8129 12.8337L24.3149 13.3601L24.7744 12.9301C25.0273 12.6937 25.2663 12.5002 25.3058 12.5002C25.3449 12.5002 25.3888 15.4943 25.403 19.1534L25.429 25.8066L32.2386 25.8326C37.6042 25.8531 39.0417 25.8852 39.0174 25.9843C39.0009 26.0535 39.0059 26.0761 39.0296 26.0343C39.0529 25.9924 39.1366 25.9584 39.2156 25.9584C39.2942 25.9584 39.3591 25.9027 39.3591 25.8343C39.3591 25.7662 39.6666 25.3905 40.0427 24.9997L40.7267 24.2888L39.9644 25.0222L39.2024 25.756H32.3409H25.4797V19.0836C25.4797 15.4137 25.4418 12.3876 25.3956 12.3589C25.3493 12.3302 25.087 12.544 24.8129 12.8337ZM49.6947 14.8782L48.5313 16.0925L49.7405 14.9076C50.4058 14.2557 50.929 13.7091 50.9034 13.6933C50.8781 13.6771 50.3338 14.2102 49.6947 14.8782ZM22.4385 15.3082C21.7984 15.962 20.9101 16.8856 20.4648 17.3608C19.8001 18.0693 19.8352 18.0423 20.6599 17.209C22.8824 14.9642 23.7008 14.1191 23.6529 14.1191C23.6252 14.1191 23.0786 14.6543 22.4385 15.3082ZM47.267 17.3894L46.1078 18.6223L47.097 17.6609C47.9267 16.8543 48.5855 16.1229 48.4584 16.1498C48.4402 16.1536 47.9048 16.7113 47.267 17.3894ZM17.5796 20.3309L16.5175 21.4556L17.6556 20.3441C18.2815 19.7327 18.7937 19.2205 18.7937 19.2057C18.7937 19.0849 18.4959 19.3608 17.5796 20.3309ZM44.4752 20.2918C43.8641 20.9039 43.409 21.3986 43.4637 21.3908C43.5646 21.3766 45.7203 19.1787 45.6332 19.1787C45.6072 19.1787 45.0859 19.6795 44.4752 20.2918ZM43.1177 21.6869C43.0396 21.7823 42.4927 22.361 41.9019 22.9733L40.828 24.0865L42.1197 22.823C42.83 22.1283 43.4114 21.5476 43.4114 21.5328C43.4114 21.4481 43.2392 21.5385 43.1177 21.6869ZM14.9422 23.0887C14.2467 23.7921 13.7687 24.3037 13.8801 24.2254C14.1097 24.0646 16.3247 21.8096 16.2535 21.8096C16.2278 21.8096 15.6381 22.3852 14.9422 23.0887ZM12.5141 25.5928L11.452 26.7175L12.5901 25.606C13.216 24.9946 13.7282 24.4824 13.7282 24.4676C13.7282 24.3468 13.4304 24.6227 12.5141 25.5928ZM37.8121 27.2502C37.2699 27.7938 36.8263 28.2754 36.8263 28.3202C36.8263 28.3647 36.8834 28.3401 36.9529 28.2652C37.0225 28.1901 37.4867 27.7088 37.9843 27.1953C38.4819 26.682 38.8685 26.2618 38.8436 26.2618C38.8186 26.2618 38.3543 26.7066 37.8121 27.2502ZM40.6163 27.5601C41.0569 28.075 41.4671 28.5269 41.5278 28.5643C41.5883 28.6018 41.2831 28.2143 40.8493 27.7038C40.4154 27.1929 40.0052 26.741 39.9377 26.6996C39.8702 26.6578 40.1754 27.0452 40.6163 27.5601ZM9.89769 28.3216C8.88183 29.3528 8.76535 29.5001 8.96658 29.5001C9.02227 29.5001 9.06783 29.4438 9.06783 29.3754C9.06783 29.3069 9.51145 28.8058 10.0536 28.2622C10.5958 27.7186 11.0148 27.2738 10.9848 27.2738C10.9547 27.2738 10.4655 27.7452 9.89769 28.3216ZM35.5583 29.6266L34.4455 30.765L35.5853 29.6535C36.644 28.6214 36.771 28.4881 36.698 28.4881C36.6832 28.4881 36.17 29.0004 35.5583 29.6266ZM42.7024 30.0063C42.9924 30.3405 43.2817 30.6459 43.3459 30.6847C43.4097 30.7239 43.1943 30.4504 42.8671 30.0771C42.54 29.7041 42.2503 29.399 42.224 29.399C42.1973 29.399 42.4127 29.6721 42.7024 30.0063ZM44.228 31.7844C44.4195 32.0114 44.5967 32.1806 44.622 32.1607C44.647 32.1405 44.4904 31.955 44.2736 31.748L43.88 31.372L44.228 31.7844ZM32.6727 32.5863C32.2575 33.0038 31.9408 33.345 31.9685 33.345C31.9965 33.345 32.3588 33.0038 32.774 32.5863C33.1889 32.1688 33.506 31.8272 33.4779 31.8272C33.4502 31.8272 33.0877 32.1688 32.6727 32.5863ZM45.3918 33.138C45.8475 33.7042 46.3489 34.2521 46.3459 34.1803C46.3438 34.1385 46.0819 33.8286 45.7635 33.4921C45.4448 33.1552 45.2777 32.996 45.3918 33.138ZM30.4462 34.9134L29.3848 36.0266L30.4924 34.9427C31.1015 34.3469 31.5792 33.8458 31.5539 33.8296C31.5283 33.8134 31.0299 34.3013 30.4462 34.9134ZM46.7349 34.7367C46.9007 34.9451 47.1414 35.2071 47.2698 35.3184C47.3988 35.4297 47.281 35.259 47.0087 34.939C46.4539 34.2872 46.2706 34.152 46.7349 34.7367ZM47.7244 35.8846C47.8875 36.0845 48.0412 36.2309 48.0664 36.21C48.0912 36.1891 47.958 36.0255 47.7698 35.8465L47.4278 35.5207L47.7244 35.8846ZM48.5654 36.8719C48.792 37.1417 49.0574 37.4263 49.1555 37.5042C49.2536 37.5821 49.0887 37.3612 48.7887 37.0132C48.4888 36.6656 48.2234 36.381 48.1987 36.381C48.1739 36.381 48.3393 36.6018 48.5654 36.8719ZM27.7136 37.7103C27.1315 38.3149 26.6886 38.8096 26.7295 38.8096C26.7703 38.8096 26.9442 38.6615 27.116 38.4804C27.2879 38.2997 27.7754 37.7989 28.1994 37.3673C28.6231 36.936 28.9256 36.5894 28.8713 36.5971C28.8169 36.6049 28.296 37.1056 27.7136 37.7103ZM49.6708 38.1517C49.7876 38.3186 50.1413 38.7283 50.4562 39.0625L51.0295 39.6695L50.3922 38.9107C49.6237 37.9949 49.3849 37.744 49.6708 38.1517ZM25.2244 40.3527L24.3149 41.2884L25.2518 40.38C26.1221 39.5359 26.2352 39.4165 26.1616 39.4165C26.1464 39.4165 25.7248 39.8377 25.2244 40.3527ZM51.5532 40.357C51.8808 40.7303 52.1704 41.0355 52.1971 41.0355C52.2639 41.0355 51.2178 39.8367 51.0753 39.7497C51.0108 39.7106 51.2262 39.9841 51.5532 40.357ZM52.4461 41.4149C53.4146 42.5509 53.9472 43.1492 53.9472 43.101C53.9472 43.022 52.4162 41.2378 52.3484 41.2378C52.319 41.2378 52.3629 41.3178 52.4461 41.4149ZM23.5843 42.0498C23.3497 42.2711 23.192 42.4521 23.2346 42.4521C23.2768 42.4521 23.4894 42.2701 23.7069 42.0475C24.216 41.5268 24.1376 41.5282 23.5843 42.0498ZM22.9979 42.6346C22.9422 42.6774 22.4861 43.1434 21.9847 43.6701L21.0732 44.6278L22.1113 43.6179C22.6826 43.0622 23.1498 42.5955 23.1498 42.5806C23.1498 42.5361 23.1049 42.552 22.9979 42.6346ZM23.1768 46.3986C23.1697 48.4298 23.195 50.1704 23.2329 50.2661C23.2967 50.4271 23.2855 44.8454 23.219 43.3629C23.2028 43.0011 23.1836 44.3672 23.1768 46.3986ZM54.2561 43.5386C54.3846 43.7191 54.5135 43.8428 54.5425 43.8138C54.5714 43.7851 54.4659 43.6378 54.3089 43.4864L54.022 43.2112L54.2561 43.5386ZM55.2643 44.7543C55.3965 44.935 55.5208 45.0831 55.5404 45.0831C55.6171 45.0831 55.3662 44.7037 55.1998 44.5689C55.09 44.4801 55.1148 44.5506 55.2643 44.7543ZM55.7708 45.5893C55.8848 45.8118 56.0006 45.9939 56.0282 45.9939C56.0562 45.9939 55.9857 45.8118 55.8722 45.5893C55.7582 45.3663 55.6428 45.1842 55.6147 45.1842C55.5867 45.1842 55.6572 45.3663 55.7708 45.5893ZM19.2021 46.5469C18.6208 47.1296 18.1657 47.6192 18.1907 47.635C18.2157 47.6504 18.7126 47.174 19.295 46.5759C19.877 45.9774 20.3321 45.4877 20.3061 45.4877C20.2801 45.4877 19.7832 45.9646 19.2021 46.5469ZM56.3856 47.2164C56.3898 47.3513 56.4342 47.552 56.4847 47.6635C56.5487 47.8044 56.558 47.7428 56.515 47.461C56.4431 46.9915 56.3754 46.8627 56.3856 47.2164ZM16.6188 49.2282C16.0094 49.8386 15.5317 50.3529 15.5567 50.3711C15.5817 50.3888 16.0999 49.8895 16.7079 49.2614C17.3163 48.6328 17.794 48.1185 17.77 48.1185C17.7461 48.1185 17.2278 48.6183 16.6188 49.2282ZM56.6127 48.7765C56.6132 49.1106 56.6323 49.2348 56.6547 49.0532C56.6772 48.8708 56.6767 48.5978 56.6538 48.4456C56.6305 48.2935 56.6122 48.4428 56.6127 48.7765ZM56.4436 49.9614C56.4095 50.0892 56.3852 50.2843 56.3903 50.3954C56.395 50.5069 56.4408 50.4206 56.4917 50.2031C56.5907 49.7826 56.5482 49.5712 56.4436 49.9614ZM14.2876 51.6484L13.479 52.5206L14.3635 51.6628C14.8497 51.1906 15.2477 50.7925 15.2477 50.7771C15.2477 50.6576 14.9824 50.8984 14.2876 51.6484ZM0.957816 52.1412C1.06855 52.3498 1.25728 52.6344 1.37747 52.7735L1.5959 53.0264L1.43182 52.7735C1.34168 52.6344 1.17557 52.3498 1.06282 52.1412C0.950056 51.9326 0.835266 51.7618 0.807247 51.7618C0.779224 51.7618 0.847082 51.9326 0.957816 52.1412ZM55.2643 52.8748C55.1452 53.0418 55.0709 53.1781 55.0985 53.1781C55.1265 53.1781 55.2466 53.0418 55.3657 52.8748C55.4844 52.7077 55.5591 52.5714 55.5316 52.5714C55.5035 52.5714 55.3835 52.7077 55.2643 52.8748ZM2.12257 53.6564C2.45376 54.0027 2.74613 54.2645 2.77246 54.2379C2.79913 54.2118 2.80049 54.1786 2.77618 54.1651C2.75153 54.1511 2.45916 53.8888 2.12594 53.5832L1.52061 53.0264L2.12257 53.6564ZM12.4581 53.6084L11.9551 54.1394L12.4871 53.6373C12.7795 53.3615 13.0189 53.1221 13.0189 53.1062C13.0189 53.0306 12.925 53.1146 12.4581 53.6084ZM54.4766 53.774C54.2383 54.0186 54.0589 54.2342 54.0776 54.2528C54.0963 54.272 54.3112 54.0839 54.5551 53.8361C54.799 53.5878 54.9784 53.3722 54.9541 53.3573C54.9293 53.3419 54.7149 53.5295 54.4766 53.774ZM11.398 54.4442C11.1472 54.6322 10.7484 54.8828 10.5115 55.0014C10.0881 55.2128 9.91152 55.3672 10.2582 55.223C10.69 55.0434 11.2741 54.6873 11.6006 54.4045C12.0702 53.9976 11.9666 54.0181 11.398 54.4442ZM25.7507 54.363C25.9277 54.5184 26.2238 54.7316 26.4091 54.8371C26.8669 55.097 26.6636 54.9141 25.9864 54.4568C25.5836 54.1847 25.5181 54.159 25.7507 54.363ZM3.23161 54.5772C3.27313 54.6439 3.49764 54.7946 3.73093 54.9113C4.22654 55.1596 4.12594 55.035 3.55403 54.6929C3.33526 54.5622 3.19009 54.51 3.23161 54.5772ZM9.48748 55.4195C9.30013 55.4732 9.16608 55.5362 9.18902 55.5595C9.24037 55.6104 9.97973 55.4139 9.97973 55.349C9.97973 55.2893 9.89937 55.301 9.48748 55.4195ZM5.82612 55.7079C5.96558 55.7527 6.19344 55.7882 6.33253 55.7872C6.56011 55.7854 6.55502 55.7774 6.28188 55.7079C5.85349 55.5992 5.48547 55.5992 5.82612 55.7079ZM8.40952 55.7079C8.13639 55.7774 8.1313 55.7854 8.35888 55.7872C8.49797 55.7882 8.7262 55.7527 8.86529 55.7079C9.20594 55.5992 8.83791 55.5992 8.40952 55.7079ZM28.5191 55.7079C28.6582 55.7527 28.8861 55.7882 29.0255 55.7872C29.2531 55.7854 29.248 55.7774 28.9749 55.7079C28.5465 55.5992 28.1785 55.5992 28.5191 55.7079ZM50.6548 55.7079C50.3815 55.7774 50.3763 55.7854 50.6043 55.7872C50.7436 55.7882 50.9716 55.7527 51.1103 55.7079C51.4514 55.5992 51.0832 55.5992 50.6548 55.7079Z" fill="#747474"/>
<path fill-rule="evenodd" clip-rule="evenodd" d="M9.60698 0.0286628C11.3244 0.0441746 14.1053 0.0441746 15.7869 0.0286628C17.4682 0.0128138 16.0631 0.000337028 12.6644 0.000337028C9.2653 0.000337028 7.88955 0.013151 9.60698 0.0286628ZM42.5248 0.0286628C44.1824 0.0441746 46.8951 0.0441746 48.5528 0.0286628C50.2105 0.0128138 48.8541 0 45.5386 0C42.2233 0 40.8671 0.0128138 42.5248 0.0286628ZM36.0468 1.2251L35.7625 1.48542L36.0917 1.25646C36.273 1.13068 36.4212 1.01367 36.4212 0.996128C36.4212 0.916211 36.3091 0.984662 36.0468 1.2251ZM55.0111 1.57175C55.2288 1.79431 55.4297 1.97641 55.4573 1.97641C55.4853 1.97641 55.3297 1.79431 55.112 1.57175C54.8947 1.34919 54.6938 1.1671 54.6658 1.1671C54.6382 1.1671 54.7933 1.34919 55.0111 1.57175ZM23.4536 1.92583C23.6427 2.12073 23.8199 2.2799 23.848 2.2799C23.8757 2.2799 23.744 2.12073 23.5549 1.92583C23.3658 1.73125 23.1886 1.57175 23.1606 1.57175C23.1329 1.57175 23.2646 1.73125 23.4536 1.92583ZM32.774 4.4556C32.3587 4.87307 32.042 5.21467 32.0697 5.21467C32.0978 5.21467 32.46 4.87307 32.8753 4.4556C33.2902 4.03813 33.6072 3.69687 33.5792 3.69687C33.5515 3.69687 33.1889 4.03813 32.774 4.4556ZM25.4631 8.71425C25.5016 12.339 25.4735 12.1555 25.9135 11.6878L26.2396 11.3412L25.9104 11.6359L25.5812 11.9309L25.5752 9.10411C25.5721 7.54917 25.5377 6.09882 25.4992 5.88065C25.4607 5.66281 25.4445 6.93784 25.4631 8.71425ZM0 27.7291C0 39.6391 0.0118173 44.4963 0.0263344 38.5229C0.040514 32.5495 0.040514 22.8051 0.0263344 16.8684C0.0118173 10.9318 0 15.819 0 27.7291ZM30.4404 6.90951L29.8868 7.49121L30.4691 6.93817C31.0103 6.42427 31.0981 6.32749 31.0228 6.32749C31.0069 6.32749 30.745 6.58947 30.4404 6.90951ZM28.0583 9.38868L27.6579 9.81862L28.0883 9.41869C28.4887 9.04675 28.5657 8.95841 28.4891 8.95841C28.4725 8.95841 28.2787 9.15199 28.0583 9.38868ZM53.0815 11.5135L52.6811 11.9438L53.1114 11.5435C53.5118 11.1715 53.5884 11.0835 53.5118 11.0835C53.4954 11.0835 53.3015 11.2771 53.0815 11.5135ZM25.2521 16.7754C25.2663 19.1268 25.2899 22.1208 25.3047 23.4286C25.3196 24.7366 25.3422 22.8125 25.355 19.1534C25.3679 15.4943 25.3443 12.5002 25.3024 12.5002C25.2609 12.5002 25.2379 14.424 25.2521 16.7754ZM50.4473 14.2456L50.0469 14.6759L50.4777 14.2756C50.7141 14.0557 50.908 13.8621 50.908 13.8456C50.908 13.7691 50.8197 13.8456 50.4473 14.2456ZM23.347 14.4988L22.9979 14.8782L23.3777 14.5295C23.7312 14.2048 23.8041 14.1191 23.7268 14.1191C23.7099 14.1191 23.5387 14.2901 23.347 14.4988ZM47.9669 16.8259L47.3119 17.5091L47.9954 16.8543C48.3715 16.4941 48.6794 16.1866 48.6794 16.1711C48.6794 16.0969 48.5761 16.1917 47.9669 16.8259ZM20.8655 17.0788L20.4651 17.5091L20.8956 17.1092C21.296 16.7369 21.3726 16.6489 21.296 16.6489C21.2795 16.6489 21.0857 16.8425 20.8655 17.0788ZM18.5381 19.5075L17.6286 20.4435L18.5654 19.5351C19.4358 18.6911 19.5488 18.5717 19.4753 18.5717C19.4601 18.5717 19.0384 18.9929 18.5381 19.5075ZM45.4353 19.4569L44.5764 20.3424L45.4626 19.4845C45.9502 19.0127 46.3492 18.6142 46.3492 18.599C46.3492 18.5255 46.2327 18.6347 45.4353 19.4569ZM13.6269 24.5923C13.2116 25.0097 12.8949 25.3513 12.9226 25.3513C12.9506 25.3513 13.3129 25.0097 13.7282 24.5923C14.1431 24.1748 14.4601 23.8332 14.4321 23.8332C14.4044 23.8332 14.0418 24.1748 13.6269 24.5923ZM40.3175 24.7693L39.8148 25.3008L40.3466 24.7983C40.8408 24.332 40.9249 24.2382 40.8496 24.2382C40.8334 24.2382 40.594 24.4773 40.3175 24.7693ZM27.7591 25.931C34.0707 26.0008 38.9539 26.0018 38.9539 25.933C38.9536 25.8912 35.8878 25.8676 32.1406 25.8804C28.3935 25.8936 26.4219 25.9162 27.7591 25.931ZM10.6832 27.6532L10.3342 28.0329L10.7143 27.6839C10.923 27.4923 11.0942 27.3214 11.0942 27.3045C11.0942 27.2273 11.0084 27.3001 10.6832 27.6532ZM41.8918 28.857C41.8918 28.9117 42.0396 29.09 42.2209 29.2532L42.5501 29.5507L42.2463 29.197C42.0791 29.0024 41.9309 28.824 41.9171 28.8007C41.9029 28.7771 41.8918 28.8024 41.8918 28.857ZM34.7466 30.3347L34.0404 31.0685L34.7747 30.3627C35.4569 29.7075 35.5555 29.6013 35.4813 29.6013C35.4657 29.6013 35.1352 29.9314 34.7466 30.3347ZM31.96 33.2185L31.4063 33.8006L31.9887 33.2475C32.5299 32.7336 32.6177 32.6368 32.5424 32.6368C32.5269 32.6368 32.2645 32.8985 31.96 33.2185ZM29.5779 35.6978L29.1775 36.128L29.6082 35.7278C30.0086 35.3558 30.0853 35.2678 30.0086 35.2678C29.9921 35.2678 29.7983 35.4613 29.5779 35.6978ZM26.7946 38.5816L25.9357 39.4671L26.822 38.6092C27.6454 37.8124 27.7547 37.6964 27.6808 37.6964C27.666 37.6964 27.2669 38.0947 26.7946 38.5816ZM24.2072 41.2631L23.9094 41.5922L24.2389 41.2948C24.4199 41.1316 24.5681 40.9836 24.5681 40.966C24.5681 40.8878 24.4844 40.9566 24.2072 41.2631ZM52.6306 41.4911C52.761 41.63 52.8853 41.744 52.9058 41.744C52.9899 41.744 52.5727 41.2439 52.4858 41.2412C52.4344 41.2395 52.4993 41.3518 52.6306 41.4911ZM23.0235 45.0578C23.0377 46.324 23.062 47.9061 23.0775 48.5744C23.0931 49.2417 23.1157 48.2062 23.1278 46.2721C23.14 44.3381 23.1154 42.7556 23.0738 42.7556C23.032 42.7556 23.0094 43.7915 23.0235 45.0578ZM20.2599 45.6145L19.5532 46.3479L20.2879 45.6425C20.9699 44.9869 21.0684 44.8807 20.9942 44.8807C20.9786 44.8807 20.6481 45.2109 20.2599 45.6145ZM56.5454 47.4105C56.6253 47.8469 56.6832 47.929 56.6809 47.6042C56.68 47.4698 56.6346 47.2915 56.58 47.208C56.5099 47.1011 56.4996 47.1613 56.5454 47.4105ZM56.7141 48.7765C56.7145 49.1106 56.7332 49.2347 56.7561 49.0532C56.7785 48.8712 56.7781 48.5977 56.7552 48.4456C56.7318 48.2935 56.7136 48.4428 56.7141 48.7765ZM56.5949 49.9067C56.5874 50.0271 56.5552 50.2096 56.523 50.3113C56.4678 50.4868 56.4706 50.4873 56.5804 50.3165C56.644 50.218 56.6762 50.0355 56.6524 49.9119C56.6089 49.6874 56.6089 49.6874 56.5949 49.9067ZM15.1464 50.9017C14.7312 51.3189 14.4145 51.6605 14.4422 51.6605C14.4702 51.6605 14.8325 51.3189 15.2477 50.9017C15.6627 50.484 15.9797 50.1424 15.9516 50.1424C15.924 50.1424 15.5614 50.484 15.1464 50.9017ZM1.68129 53.3419C1.81566 53.5155 1.94597 53.6396 1.97096 53.6172C1.99594 53.5948 1.88588 53.4529 1.72653 53.3017L1.43653 53.0264L1.68129 53.3419ZM12.4111 53.7348C12.165 53.9849 11.9864 54.1903 12.0145 54.1903C12.0421 54.1903 12.2663 53.9849 12.5124 53.7348C12.7586 53.4842 12.9371 53.2793 12.9091 53.2793C12.8814 53.2793 12.6573 53.4842 12.4111 53.7348ZM54.2458 54.1651L53.8968 54.5445L54.2766 54.1954C54.4855 54.0036 54.6565 53.8333 54.6565 53.816C54.6565 53.739 54.5705 53.8118 54.2458 54.1651ZM2.38487 54.0638C2.38655 54.1053 2.5118 54.2271 2.66339 54.334L2.93888 54.5281L2.6931 54.2579C2.43517 53.9742 2.37947 53.9387 2.38487 54.0638ZM8.1816 55.8791C8.27883 55.9043 8.43852 55.9043 8.53608 55.8791C8.63363 55.8535 8.55364 55.8329 8.35886 55.8329C8.16371 55.8329 8.08405 55.8535 8.1816 55.8791ZM28.8483 55.8791C28.9459 55.9043 29.1052 55.9043 29.2028 55.8791C29.3003 55.8535 29.2207 55.8329 29.0255 55.8329C28.8304 55.8329 28.7507 55.8535 28.8483 55.8791ZM50.4268 55.8791C50.5244 55.9043 50.6837 55.9043 50.7814 55.8791C50.879 55.8535 50.7991 55.8329 50.6043 55.8329C50.409 55.8329 50.3291 55.8535 50.4268 55.8791ZM7.1178 55.9818C7.24306 56.0061 7.44831 56.0061 7.57357 55.9818C7.69916 55.9575 7.59651 55.9379 7.34566 55.9379C7.09482 55.9379 6.99254 55.9575 7.1178 55.9818ZM34.7824 55.986C37.5866 56.0014 42.1453 56.0014 44.9134 55.986C47.681 55.9715 45.3867 55.9594 39.8148 55.9594C34.2429 55.9594 31.9783 55.9715 34.7824 55.986Z" fill="#C3BCBC"/>
<path d="M39.2459 11.6666H3.27048V42H39.2459V11.6666Z" fill="#E04462"/>
<path d="M4.64751 26.2837L5.90909 14.576H18.397V17.9256H9.13487L8.4961 23.4764C9.57134 22.8597 10.785 22.5513 12.137 22.5513C14.3514 22.5513 16.0708 23.2584 17.2951 24.6727C18.5301 26.087 19.1475 27.9904 19.1475 30.383C19.1475 32.7437 18.4662 34.6258 17.1035 36.0295C15.7408 37.4225 13.8724 38.119 11.4983 38.119C9.36909 38.119 7.60181 37.5182 6.19652 36.3166C4.80189 35.1043 4.046 33.5093 3.92889 31.5315H7.68165C7.83069 32.6586 8.23525 33.5252 8.89533 34.1314C9.55536 34.7269 10.4177 35.0246 11.4823 35.0246C12.6747 35.0246 13.6009 34.5993 14.2609 33.7486C14.9317 32.8979 15.267 31.7388 15.267 30.2714C15.267 28.8571 14.8997 27.7405 14.1652 26.9218C13.4306 26.0923 12.4192 25.6776 11.131 25.6776C10.4284 25.6776 9.83219 25.7733 9.34245 25.9647C8.85272 26.1455 8.32043 26.507 7.74552 27.0493L4.64751 26.2837ZM31.4119 25.0236H37.4802V28.5647H31.4119V35.4712H27.6431V28.5647H21.5429V25.0236H27.6431V18.5637H31.4119V25.0236Z" fill="#EFECEA"/>
<path d="M77.542 34.9507L73.5942 39.1377V50H67.541V15.1641H73.5942V31.5054L76.9438 27.3662L87.1362 15.1641H94.4575L81.5137 30.5962L95.1992 50H88.0215L77.542 34.9507ZM96.1323 36.8169C96.1323 34.2808 96.6348 31.9998 97.6396 29.9741C98.6445 27.9325 100.056 26.3693 101.875 25.2847C103.693 24.1841 105.782 23.6338 108.143 23.6338C111.636 23.6338 114.467 24.7583 116.637 27.0073C118.822 29.2563 120.002 32.2391 120.178 35.9556L120.202 37.3193C120.202 39.8714 119.707 42.1523 118.718 44.1621C117.745 46.1719 116.342 47.7271 114.507 48.8276C112.689 49.9282 110.583 50.4785 108.191 50.4785C104.538 50.4785 101.611 49.2663 99.4102 46.8418C97.2249 44.4014 96.1323 41.1554 96.1323 37.104V36.8169ZM101.946 37.3193C101.946 39.9831 102.497 42.0726 103.597 43.5879C104.698 45.0872 106.229 45.8369 108.191 45.8369C110.153 45.8369 111.676 45.0713 112.761 43.54C113.861 42.0088 114.412 39.7677 114.412 36.8169C114.412 34.201 113.845 32.1274 112.713 30.5962C111.596 29.0649 110.073 28.2993 108.143 28.2993C106.245 28.2993 104.738 29.057 103.621 30.5723C102.505 32.0716 101.946 34.3206 101.946 37.3193ZM130.514 24.1123L130.681 27.103C132.595 24.7902 135.107 23.6338 138.218 23.6338C143.609 23.6338 146.353 26.7202 146.448 32.8931V50H140.634V33.228C140.634 31.5851 140.275 30.3729 139.558 29.5913C138.856 28.7938 137.699 28.395 136.088 28.395C133.744 28.395 131.997 29.4557 130.849 31.5771V50H125.035V24.1123H130.514ZM159.679 17.8198V24.1123H164.249V28.4189H159.679V42.8701C159.679 43.859 159.871 44.5768 160.253 45.0234C160.652 45.4541 161.354 45.6694 162.359 45.6694C163.029 45.6694 163.707 45.5897 164.393 45.4302V49.9282C163.069 50.2951 161.793 50.4785 160.564 50.4785C156.098 50.4785 153.865 48.0142 153.865 43.0854V28.4189H149.606V24.1123H153.865V17.8198H159.679ZM166.905 36.8169C166.905 34.2808 167.407 31.9998 168.412 29.9741C169.417 27.9325 170.829 26.3693 172.647 25.2847C174.465 24.1841 176.555 23.6338 178.916 23.6338C182.409 23.6338 185.24 24.7583 187.409 27.0073C189.594 29.2563 190.775 32.2391 190.95 35.9556L190.974 37.3193C190.974 39.8714 190.48 42.1523 189.491 44.1621C188.518 46.1719 187.114 47.7271 185.28 48.8276C183.461 49.9282 181.356 50.4785 178.963 50.4785C175.311 50.4785 172.384 49.2663 170.183 46.8418C167.997 44.4014 166.905 41.1554 166.905 37.104V36.8169ZM172.719 37.3193C172.719 39.9831 173.269 42.0726 174.37 43.5879C175.47 45.0872 177.001 45.8369 178.963 45.8369C180.925 45.8369 182.449 45.0713 183.533 43.54C184.634 42.0088 185.184 39.7677 185.184 36.8169C185.184 34.201 184.618 32.1274 183.485 30.5962C182.369 29.0649 180.846 28.2993 178.916 28.2993C177.017 28.2993 175.51 29.057 174.394 30.5723C173.277 32.0716 172.719 34.3206 172.719 37.3193ZM209.277 32.7256L211.167 15.1641H229.877V20.1885H216L215.043 28.5146C216.654 27.5895 218.473 27.127 220.499 27.127C223.816 27.127 226.392 28.1877 228.227 30.3091C230.077 32.4305 231.002 35.2856 231.002 38.8745C231.002 42.4155 229.981 45.2388 227.939 47.3442C225.898 49.4338 223.098 50.4785 219.542 50.4785C216.351 50.4785 213.704 49.5773 211.598 47.7749C209.509 45.9565 208.376 43.564 208.201 40.5972H213.823C214.047 42.2879 214.653 43.5879 215.642 44.4971C216.631 45.3903 217.923 45.8369 219.518 45.8369C221.304 45.8369 222.692 45.1989 223.681 43.9229C224.686 42.6468 225.188 40.9082 225.188 38.707C225.188 36.5856 224.638 34.9108 223.537 33.6826C222.437 32.4385 220.921 31.8164 218.991 31.8164C217.938 31.8164 217.045 31.96 216.312 32.2471C215.578 32.5182 214.78 33.0605 213.919 33.874L209.277 32.7256ZM258.612 37.3193C258.612 41.3229 257.703 44.521 255.885 46.9136C254.066 49.2902 251.626 50.4785 248.563 50.4785C245.724 50.4785 243.451 49.5454 241.745 47.6792V59.9531H235.931V24.1123H241.29L241.529 26.7441C243.236 24.6706 245.557 23.6338 248.492 23.6338C251.65 23.6338 254.122 24.8141 255.909 27.1748C257.711 29.5195 258.612 32.7814 258.612 36.9604V37.3193ZM252.822 36.8169C252.822 34.2329 252.304 32.1833 251.267 30.668C250.246 29.1527 248.779 28.395 246.865 28.395C244.488 28.395 242.781 29.376 241.745 31.3379V42.8223C242.797 44.832 244.52 45.8369 246.913 45.8369C248.763 45.8369 250.206 45.0952 251.243 43.6118C252.296 42.1125 252.822 39.8475 252.822 36.8169ZM269.738 50H263.924V13.25H269.738V50ZM291.773 47.4639C290.067 49.4736 287.642 50.4785 284.5 50.4785C281.693 50.4785 279.563 49.6571 278.112 48.0142C276.676 46.3713 275.958 43.9946 275.958 40.8843V24.1123H281.772V40.8125C281.772 44.0983 283.136 45.7412 285.864 45.7412C288.687 45.7412 290.593 44.7284 291.582 42.7026V24.1123H297.396V50H291.917L291.773 47.4639ZM317.829 42.9658C317.829 41.929 317.398 41.1395 316.537 40.5972C315.691 40.0549 314.28 39.5763 312.302 39.1616C310.324 38.7469 308.673 38.2205 307.349 37.5825C304.446 36.1789 302.995 34.1452 302.995 31.4814C302.995 29.2484 303.936 27.3822 305.818 25.8828C307.7 24.3835 310.093 23.6338 312.996 23.6338C316.09 23.6338 318.586 24.3994 320.484 25.9307C322.398 27.4619 323.355 29.4478 323.355 31.8882H317.542C317.542 30.7716 317.127 29.8465 316.297 29.1128C315.468 28.3631 314.367 27.9883 312.996 27.9883C311.72 27.9883 310.675 28.2834 309.861 28.8735C309.064 29.4637 308.665 30.2533 308.665 31.2422C308.665 32.1354 309.04 32.8293 309.79 33.3237C310.539 33.8182 312.055 34.3206 314.335 34.8311C316.616 35.3255 318.403 35.9237 319.695 36.6255C321.003 37.3114 321.968 38.1408 322.59 39.1138C323.228 40.0868 323.547 41.2671 323.547 42.6548C323.547 44.9836 322.582 46.8737 320.652 48.3252C318.722 49.7607 316.194 50.4785 313.067 50.4785C310.946 50.4785 309.056 50.0957 307.397 49.3301C305.738 48.5645 304.446 47.5117 303.521 46.1719C302.596 44.832 302.133 43.3885 302.133 41.8413H307.78C307.86 43.2131 308.378 44.2738 309.335 45.0234C310.292 45.7572 311.56 46.124 313.139 46.124C314.67 46.124 315.835 45.8369 316.632 45.2627C317.43 44.6725 317.829 43.9069 317.829 42.9658Z" fill="black"/>
</svg>
